<svg width="300" height="300" viewBox="0 0 300 300" fill="none" xmlns="http://www.w3.org/2000/svg">
<path d="M255.727 139.867C255.992 140.055 256.266 140.195 256.547 140.289C256.828 140.383 257.078 140.453 257.297 140.5C257.562 140.562 257.82 140.594 258.07 140.594C258.383 140.594 258.664 140.555 258.914 140.477C259.18 140.398 259.469 140.32 259.781 140.242C260.094 140.164 260.453 140.102 260.859 140.055C261.266 139.992 261.773 139.984 262.383 140.031C262.992 140.078 263.539 140.219 264.023 140.453C264.508 140.672 264.914 140.953 265.242 141.297C265.586 141.625 265.852 141.992 266.039 142.398C266.227 142.805 266.32 143.219 266.32 143.641C266.289 144.281 266.188 144.883 266.016 145.445C265.859 145.93 265.617 146.406 265.289 146.875C264.961 147.328 264.477 147.648 263.836 147.836C264.617 147.945 265.227 148.148 265.664 148.445C266.117 148.742 266.469 149.047 266.719 149.359C267 149.734 267.195 150.141 267.305 150.578C267.398 151.156 267.391 151.75 267.281 152.359C267.172 152.953 266.969 153.516 266.672 154.047C266.391 154.562 266 155.023 265.5 155.43C265.016 155.82 264.43 156.109 263.742 156.297C263.273 156.422 262.734 156.453 262.125 156.391C261.531 156.312 260.953 156.203 260.391 156.062C259.828 155.922 259.32 155.781 258.867 155.641C258.414 155.5 258.102 155.438 257.93 155.453C257.789 155.469 257.625 155.523 257.438 155.617C257.266 155.695 257.062 155.82 256.828 155.992C256.609 156.148 256.344 156.375 256.031 156.672C256.109 155.969 256.164 155.406 256.195 154.984C256.242 154.562 256.281 154.227 256.312 153.977C256.344 153.695 256.359 153.484 256.359 153.344V152.828C256.359 152.641 256.352 152.398 256.336 152.102C256.32 151.805 256.305 151.43 256.289 150.977C257.086 151.945 257.836 152.672 258.539 153.156C259.242 153.641 259.859 153.992 260.391 154.211C261.016 154.461 261.586 154.578 262.102 154.562C262.539 154.531 262.891 154.391 263.156 154.141C263.422 153.875 263.609 153.562 263.719 153.203C263.828 152.844 263.867 152.461 263.836 152.055C263.805 151.633 263.703 151.242 263.531 150.883C263.375 150.508 263.156 150.188 262.875 149.922C262.594 149.641 262.266 149.469 261.891 149.406C261.438 149.328 261.008 149.32 260.602 149.383C260.242 149.43 259.867 149.539 259.477 149.711C259.086 149.867 258.758 150.141 258.492 150.531C258.461 150.266 258.438 150.039 258.422 149.852C258.422 149.664 258.414 149.508 258.398 149.383C258.383 149.242 258.375 149.141 258.375 149.078C258.375 149 258.367 148.883 258.352 148.727C258.336 148.602 258.32 148.438 258.305 148.234C258.305 148.016 258.289 147.742 258.258 147.414C258.539 147.492 258.805 147.555 259.055 147.602C259.305 147.633 259.523 147.656 259.711 147.672C259.93 147.688 260.133 147.688 260.32 147.672C260.555 147.656 260.836 147.57 261.164 147.414C261.508 147.242 261.828 147.016 262.125 146.734C262.422 146.453 262.656 146.117 262.828 145.727C263.016 145.336 263.078 144.906 263.016 144.438C262.875 143.484 262.555 142.805 262.055 142.398C261.57 141.977 261.07 141.781 260.555 141.812C260.211 141.859 259.805 142.023 259.336 142.305C258.93 142.539 258.445 142.898 257.883 143.383C257.336 143.852 256.711 144.516 256.008 145.375C256.039 144.953 256.055 144.578 256.055 144.25C256.055 143.906 256.055 143.625 256.055 143.406C256.055 143.141 256.047 142.906 256.031 142.703L255.961 142C255.93 141.766 255.898 141.469 255.867 141.109C255.836 140.75 255.789 140.336 255.727 139.867Z" fill="black"/>
<path d="M150.727 252.586L151.172 258.492C151.047 257.945 150.852 257.539 150.586 257.273C150.336 257.008 150.078 256.828 149.812 256.734C149.5 256.625 149.156 256.594 148.781 256.641C147.906 256.859 147.133 257.281 146.461 257.906C146.18 258.172 145.898 258.492 145.617 258.867C145.336 259.242 145.086 259.695 144.867 260.227C144.664 260.742 144.5 261.336 144.375 262.008C144.25 262.68 144.188 263.445 144.188 264.305C144.438 263.633 144.719 263.07 145.031 262.617C145.344 262.148 145.672 261.773 146.016 261.492C146.375 261.195 146.734 260.969 147.094 260.812C147.453 260.656 147.805 260.555 148.148 260.508C148.945 260.383 149.766 260.477 150.609 260.789C151.281 261.086 151.82 261.531 152.227 262.125C152.633 262.703 152.898 263.359 153.023 264.094C153.148 264.812 153.141 265.562 153 266.344C152.875 267.109 152.617 267.82 152.227 268.477C151.852 269.133 151.344 269.688 150.703 270.141C150.062 270.609 149.305 270.891 148.43 270.984C147.117 271.125 145.945 270.922 144.914 270.375C143.898 269.844 143.094 269.07 142.5 268.055C141.906 267.039 141.57 265.836 141.492 264.445C141.414 263.039 141.656 261.547 142.219 259.969C142.469 259.266 142.75 258.586 143.062 257.93C143.375 257.258 143.828 256.617 144.422 256.008C145.016 255.398 145.805 254.812 146.789 254.25C147.789 253.672 149.102 253.117 150.727 252.586ZM145.711 266.156C145.758 266.641 145.859 267.086 146.016 267.492C146.172 267.898 146.352 268.25 146.555 268.547C146.773 268.844 147 269.078 147.234 269.25C147.484 269.406 147.719 269.477 147.938 269.461C148.391 269.43 148.773 269.133 149.086 268.57C149.414 267.992 149.609 267.227 149.672 266.273C149.703 265.805 149.641 265.336 149.484 264.867C149.344 264.383 149.164 263.953 148.945 263.578C148.727 263.203 148.484 262.906 148.219 262.688C147.969 262.453 147.742 262.344 147.539 262.359C147.227 262.406 146.945 262.539 146.695 262.758C146.461 262.977 146.258 263.258 146.086 263.602C145.93 263.945 145.812 264.344 145.734 264.797C145.672 265.234 145.664 265.688 145.711 266.156Z" fill="black"/>
<path d="M35.4219 140.477C35.9531 140.523 36.5 140.664 37.0625 140.898C37.625 141.133 38.1484 141.477 38.6328 141.93C39.1172 142.367 39.5312 142.922 39.875 143.594C40.2344 144.266 40.4609 145.055 40.5547 145.961C40.7109 147.523 40.6094 148.875 40.25 150.016C39.9062 151.156 39.3984 152.156 38.7266 153.016C38.0703 153.875 37.2969 154.641 36.4062 155.312C35.5312 155.969 34.625 156.594 33.6875 157.188C33.2188 156.734 32.8516 156.367 32.5859 156.086L32.1641 155.664C32.0547 155.523 31.9141 155.367 31.7422 155.195C31.6016 155.039 31.4297 154.852 31.2266 154.633C31.0234 154.414 30.7969 154.164 30.5469 153.883C31.0312 154.148 31.4688 154.32 31.8594 154.398C32.2656 154.477 32.6094 154.508 32.8906 154.492C33.2188 154.477 33.5156 154.422 33.7812 154.328C34.4844 153.984 35.1172 153.555 35.6797 153.039C36.1641 152.586 36.6016 152.023 36.9922 151.352C37.3984 150.664 37.6172 149.852 37.6484 148.914C37.1484 149.633 36.6016 150.148 36.0078 150.461C35.4297 150.773 34.8906 150.984 34.3906 151.094C33.7969 151.219 33.2031 151.242 32.6094 151.164C32.3125 151.117 31.9922 150.961 31.6484 150.695C31.3047 150.43 30.9766 150.094 30.6641 149.688C30.3516 149.266 30.0703 148.797 29.8203 148.281C29.5859 147.766 29.4219 147.227 29.3281 146.664C29.2344 146.086 29.2266 145.508 29.3047 144.93C29.3984 144.336 29.625 143.766 29.9844 143.219C30.5156 142.422 31.0156 141.82 31.4844 141.414C31.9531 141.008 32.4062 140.734 32.8438 140.594C33.2812 140.438 33.7109 140.367 34.1328 140.383C34.5547 140.398 34.9844 140.43 35.4219 140.477ZM32.9375 145.211C32.8125 145.648 32.75 146.086 32.75 146.523C32.75 146.961 32.8047 147.359 32.9141 147.719C33.0391 148.078 33.2109 148.391 33.4297 148.656C33.6484 148.906 33.9219 149.062 34.25 149.125C34.5781 149.203 34.8984 149.156 35.2109 148.984C35.5391 148.797 35.8359 148.539 36.1016 148.211C36.3828 147.883 36.6172 147.5 36.8047 147.062C37.0078 146.609 37.1406 146.148 37.2031 145.68C37.25 145.352 37.25 145 37.2031 144.625C37.1719 144.234 37.0938 143.875 36.9688 143.547C36.8594 143.203 36.7109 142.914 36.5234 142.68C36.3516 142.445 36.1484 142.305 35.9141 142.258C35.6016 142.211 35.2891 142.258 34.9766 142.398C34.6797 142.523 34.3984 142.727 34.1328 143.008C33.8672 143.273 33.625 143.602 33.4062 143.992C33.2031 144.367 33.0469 144.773 32.9375 145.211Z" fill="black"/>
<path d="M137.68 32.4688C138.227 32.2969 138.672 32.1562 139.016 32.0469C139.359 31.9219 139.641 31.8203 139.859 31.7422C140.109 31.6484 140.297 31.5625 140.422 31.4844L140.984 31.2031C141.203 31.0938 141.484 30.9531 141.828 30.7812C142.172 30.5938 142.617 30.3594 143.164 30.0781C143.039 30.6719 142.945 31.2344 142.883 31.7656C142.836 32.2812 142.797 32.7422 142.766 33.1484C142.719 33.6172 142.695 34.0469 142.695 34.4375C142.68 34.7656 142.656 35.2031 142.625 35.75C142.609 36.2969 142.586 36.8906 142.555 37.5312C142.523 38.1719 142.492 38.8281 142.461 39.5C142.43 40.1719 142.406 40.8047 142.391 41.3984C142.391 41.9766 142.398 42.4766 142.414 42.8984C142.445 43.3203 142.5 43.6094 142.578 43.7656C142.656 43.9531 142.758 44.1328 142.883 44.3047C142.992 44.4609 143.117 44.6406 143.258 44.8438C143.414 45.0312 143.602 45.2188 143.82 45.4062C143.461 45.4844 143.125 45.5547 142.812 45.6172C142.5 45.6641 142.227 45.7031 141.992 45.7344C141.711 45.7812 141.461 45.8203 141.242 45.8516C141.008 45.8672 140.688 45.9062 140.281 45.9688C139.938 46.0156 139.5 46.0781 138.969 46.1562C138.438 46.2188 137.781 46.2891 137 46.3672C137.406 46.1172 137.727 45.875 137.961 45.6406C138.211 45.4062 138.398 45.2031 138.523 45.0312C138.664 44.8281 138.75 44.6328 138.781 44.4453C138.797 44.3203 138.82 43.9844 138.852 43.4375C138.898 42.875 138.938 42.2188 138.969 41.4688C139.016 40.7031 139.055 39.8906 139.086 39.0312C139.133 38.1562 139.164 37.3438 139.18 36.5938C139.195 35.8438 139.203 35.2031 139.203 34.6719C139.203 34.1406 139.18 33.8203 139.133 33.7109C139.07 33.6016 138.977 33.4766 138.852 33.3359C138.742 33.2109 138.594 33.0781 138.406 32.9375C138.234 32.7969 137.992 32.6406 137.68 32.4688ZM145.742 30.4766C146.039 30.6953 146.336 30.8594 146.633 30.9688C146.945 31.0625 147.227 31.125 147.477 31.1562C147.758 31.2031 148.039 31.2109 148.32 31.1797C148.586 31.1484 148.859 31.0547 149.141 30.8984C149.422 30.7422 149.75 30.5781 150.125 30.4062C150.5 30.2344 150.938 30.0859 151.438 29.9609C151.953 29.8203 152.57 29.75 153.289 29.75C153.602 29.75 153.93 29.8125 154.273 29.9375C154.633 30.0625 154.977 30.2266 155.305 30.4297C155.633 30.6172 155.93 30.8281 156.195 31.0625C156.477 31.2969 156.688 31.5312 156.828 31.7656C156.984 32 157.094 32.3828 157.156 32.9141C157.219 33.4297 157.242 33.9922 157.227 34.6016C157.211 35.2109 157.156 35.8125 157.062 36.4062C156.984 37 156.867 37.4844 156.711 37.8594C156.523 38.1875 156.164 38.6094 155.633 39.125C155.18 39.5625 154.5 40.125 153.594 40.8125C152.688 41.5 151.469 42.3203 149.938 43.2734C150.844 43.2578 151.602 43.2344 152.211 43.2031C152.836 43.1562 153.344 43.1094 153.734 43.0625C154.188 43 154.547 42.9375 154.812 42.875C155.047 42.7812 155.297 42.6484 155.562 42.4766C155.781 42.3203 156.016 42.1172 156.266 41.8672C156.531 41.6172 156.789 41.2891 157.039 40.8828C157.086 41.7266 157.133 42.3906 157.18 42.875C157.211 43.1562 157.234 43.3984 157.25 43.6016C157.266 43.7891 157.281 44.0078 157.297 44.2578C157.312 44.4766 157.32 44.7266 157.32 45.0078C157.336 45.2891 157.359 45.5859 157.391 45.8984C156.609 45.6953 155.898 45.5391 155.258 45.4297C154.617 45.3047 154.07 45.2188 153.617 45.1719C153.086 45.1094 152.609 45.0781 152.188 45.0781C151.75 45.0938 151.266 45.1328 150.734 45.1953C150.266 45.2578 149.703 45.3516 149.047 45.4766C148.406 45.5859 147.68 45.75 146.867 45.9688C146.805 45.7969 146.75 45.625 146.703 45.4531C146.656 45.2656 146.617 45.0859 146.586 44.9141C146.539 44.7266 146.5 44.5391 146.469 44.3516C146.438 44.1641 146.406 43.9844 146.375 43.8125C146.344 43.6562 146.32 43.4922 146.305 43.3203C146.289 43.1484 146.273 42.9844 146.258 42.8281C147.508 42.0312 148.523 41.3125 149.305 40.6719C150.086 40.0156 150.703 39.4609 151.156 39.0078C151.672 38.4766 152.062 37.9922 152.328 37.5547C152.594 37.0234 152.812 36.4375 152.984 35.7969C153.156 35.1562 153.211 34.5625 153.148 34.0156C153.102 33.4688 152.914 33.0234 152.586 32.6797C152.258 32.3203 151.734 32.1641 151.016 32.2109C150.547 32.2422 150.102 32.4062 149.68 32.7031C149.273 33 148.898 33.3594 148.555 33.7812C148.211 34.2031 147.906 34.6562 147.641 35.1406C147.375 35.6094 147.148 36.0547 146.961 36.4766C146.789 36.8984 146.648 37.25 146.539 37.5312C146.445 37.8125 146.398 37.9609 146.398 37.9766C146.383 38.0078 146.359 37.8906 146.328 37.625C146.312 37.3594 146.289 37.0312 146.258 36.6406C146.242 36.2344 146.219 35.8125 146.188 35.375C146.156 34.9375 146.125 34.5703 146.094 34.2734C146.078 34.0391 146.055 33.7344 146.023 33.3594C145.977 32.75 145.883 31.7891 145.742 30.4766Z" fill="black"/>
<path d="M38.7846 90.7321C39.7412 91.2843 40.9644 90.9566 41.5167 90C42.0689 89.0434 41.7412 87.8202 40.7846 87.2679L38.7846 90.7321ZM18 78.7321L38.7846 90.7321L40.7846 87.2679L20 75.2679L18 78.7321Z" fill="black"/>
<path d="M83.2679 42.7846C83.8202 43.7412 85.0434 44.0689 86 43.5167C86.9566 42.9644 87.2843 41.7412 86.7321 40.7846L83.2679 42.7846ZM71.2679 22L83.2679 42.7846L86.7321 40.7846L74.7321 20L71.2679 22Z" fill="black"/>
<path d="M146 24C146 25.1046 146.895 26 148 26C149.105 26 150 25.1046 150 24H146ZM146 0V24H150V0L146 0Z" fill="black"/>
<path d="M209.268 38.7846C208.716 39.7412 209.043 40.9644 210 41.5167C210.957 42.0689 212.18 41.7412 212.732 40.7846L209.268 38.7846ZM221.268 18L209.268 38.7846L212.732 40.7846L224.732 20L221.268 18Z" fill="black"/>
<path d="M258 83.2679C257.043 83.8202 256.716 85.0434 257.268 86C257.82 86.9566 259.043 87.2843 260 86.7321L258 83.2679ZM278.785 71.2679L258 83.2679L260 86.7321L280.785 74.7321L278.785 71.2679Z" fill="black"/>
<path d="M276 146C274.895 146 274 146.895 274 148C274 149.105 274.895 150 276 150V146ZM300 146H276V150H300V146Z" fill="black"/>
<path d="M259 213.268C258.043 212.716 256.82 213.043 256.268 214C255.716 214.957 256.043 216.18 257 216.732L259 213.268ZM279.785 225.268L259 213.268L257 216.732L277.785 228.732L279.785 225.268Z" fill="black"/>
<path d="M212.732 259C212.18 258.043 210.957 257.716 210 258.268C209.043 258.82 208.716 260.043 209.268 261L212.732 259ZM224.732 279.785L212.732 259L209.268 261L221.268 281.785L224.732 279.785Z" fill="black"/>
<path d="M150 276C150 274.895 149.105 274 148 274C146.895 274 146 274.895 146 276H150ZM150 300V276H146V300H150Z" fill="black"/>
<path d="M86.7321 259C87.2843 258.043 86.9566 256.82 86 256.268C85.0434 255.716 83.8202 256.043 83.2679 257L86.7321 259ZM74.7321 279.785L86.7321 259L83.2679 257L71.2679 277.785L74.7321 279.785Z" fill="black"/>
<path d="M40.7846 212.732C41.7412 212.18 42.0689 210.957 41.5167 210C40.9644 209.043 39.7412 208.716 38.7846 209.268L40.7846 212.732ZM20 224.732L40.7846 212.732L38.7846 209.268L18 221.268L20 224.732Z" fill="black"/>
<path d="M24 150C25.1046 150 26 149.105 26 148C26 146.895 25.1046 146 24 146V150ZM0 150H24V146H0V150Z" fill="black"/>
</svg>
