<svg width="300" height="300" viewBox="0 0 300 300" fill="none" xmlns="http://www.w3.org/2000/svg">
<path d="M265.44 150.32C265.44 150.784 265.272 151.184 264.936 151.52C264.616 151.84 264.224 152 263.76 152H258.72C258.256 152 257.856 151.84 257.52 151.52C257.2 151.184 257.04 150.784 257.04 150.32V148.64H258.96V150.32H263.52V146.96H260.4V145.568L263.76 142.16V141.92H257.04V140.24H265.44V142.664L262.824 145.28V145.52C262.824 145.504 262.912 145.496 263.088 145.496C263.168 145.496 263.264 145.496 263.376 145.496C263.488 145.496 263.616 145.504 263.76 145.52C264.224 145.536 264.616 145.712 264.936 146.048C265.272 146.368 265.44 146.752 265.44 147.2V150.32Z" fill="black"/>
<path d="M151.68 263.32C151.68 263.784 151.512 264.184 151.176 264.52C150.856 264.84 150.464 265 150 265H144.72C144.256 265 143.856 264.84 143.52 264.52C143.2 264.184 143.04 263.784 143.04 263.32V254.92C143.04 254.456 143.2 254.064 143.52 253.744C143.856 253.408 144.256 253.24 144.72 253.24H151.44V254.92H144.96V258.04H150C150.464 258.04 150.856 258.208 151.176 258.544C151.512 258.864 151.68 259.256 151.68 259.72V263.32ZM149.76 263.32V259.72H144.96V263.32H149.76Z" fill="black"/>
<path d="M30.44 141.92C30.44 141.456 30.6 141.064 30.92 140.744C31.256 140.408 31.656 140.24 32.12 140.24H37.4C37.864 140.24 38.256 140.408 38.576 140.744C38.912 141.064 39.08 141.456 39.08 141.92V150.32C39.08 150.784 38.912 151.184 38.576 151.52C38.256 151.84 37.864 152 37.4 152H30.68V150.32H37.16V147.2H32.12C31.656 147.2 31.256 147.04 30.92 146.72C30.6 146.384 30.44 145.984 30.44 145.52V141.92ZM32.36 141.92V145.52H37.16V141.92H32.36Z" fill="black"/>
<path d="M147.44 42H139.04V40.32H143.84V32.28H143.6L139.76 36.12L138.56 34.896L143.216 30.24H145.76V40.32H147.44V42ZM159.909 42H151.509V39.48L157.989 34.728V31.92H153.429V33.6H151.509V31.92C151.509 31.456 151.669 31.064 151.989 30.744C152.325 30.408 152.725 30.24 153.189 30.24H158.229C158.693 30.24 159.085 30.408 159.405 30.744C159.741 31.064 159.909 31.456 159.909 31.92V35.4L153.549 40.08V40.32H159.909V42Z" fill="black"/>
<path d="M38.7846 90.7321C39.7412 91.2843 40.9644 90.9566 41.5167 90C42.0689 89.0434 41.7412 87.8202 40.7846 87.2679L38.7846 90.7321ZM18 78.7321L38.7846 90.7321L40.7846 87.2679L20 75.2679L18 78.7321Z" fill="black"/>
<path d="M83.2679 42.7846C83.8202 43.7412 85.0434 44.0689 86 43.5167C86.9566 42.9644 87.2843 41.7412 86.7321 40.7846L83.2679 42.7846ZM71.2679 22L83.2679 42.7846L86.7321 40.7846L74.7321 20L71.2679 22Z" fill="black"/>
<path d="M146 24C146 25.1046 146.895 26 148 26C149.105 26 150 25.1046 150 24H146ZM146 0V24H150V0L146 0Z" fill="black"/>
<path d="M209.268 38.7846C208.716 39.7412 209.043 40.9644 210 41.5167C210.957 42.0689 212.18 41.7412 212.732 40.7846L209.268 38.7846ZM221.268 18L209.268 38.7846L212.732 40.7846L224.732 20L221.268 18Z" fill="black"/>
<path d="M258 83.2679C257.043 83.8202 256.716 85.0434 257.268 86C257.82 86.9566 259.043 87.2843 260 86.7321L258 83.2679ZM278.785 71.2679L258 83.2679L260 86.7321L280.785 74.7321L278.785 71.2679Z" fill="black"/>
<path d="M276 146C274.895 146 274 146.895 274 148C274 149.105 274.895 150 276 150V146ZM300 146H276V150H300V146Z" fill="black"/>
<path d="M259 213.268C258.043 212.716 256.82 213.043 256.268 214C255.716 214.957 256.043 216.18 257 216.732L259 213.268ZM279.785 225.268L259 213.268L257 216.732L277.785 228.732L279.785 225.268Z" fill="black"/>
<path d="M212.732 259C212.18 258.043 210.957 257.716 210 258.268C209.043 258.82 208.716 260.043 209.268 261L212.732 259ZM224.732 279.785L212.732 259L209.268 261L221.268 281.785L224.732 279.785Z" fill="black"/>
<path d="M150 276C150 274.895 149.105 274 148 274C146.895 274 146 274.895 146 276H150ZM150 300V276H146V300H150Z" fill="black"/>
<path d="M86.7321 259C87.2843 258.043 86.9566 256.82 86 256.268C85.0434 255.716 83.8202 256.043 83.2679 257L86.7321 259ZM74.7321 279.785L86.7321 259L83.2679 257L71.2679 277.785L74.7321 279.785Z" fill="black"/>
<path d="M40.7846 212.732C41.7412 212.18 42.0689 210.957 41.5167 210C40.9644 209.043 39.7412 208.716 38.7846 209.268L40.7846 212.732ZM20 224.732L40.7846 212.732L38.7846 209.268L18 221.268L20 224.732Z" fill="black"/>
<path d="M24 150C25.1046 150 26 149.105 26 148C26 146.895 25.1046 146 24 146V150ZM0 150H24V146H0V150Z" fill="black"/>
</svg>
